<?xml version="1.0"?>
<svg version="1.1" xmlns="http://www.w3.org/2000/svg" width="400" height="50" style=""><path fill="#db3097" d="M16.07666015625,39.7314453125q-0.01708984375-0.5126953125-0.01708984375-1.025390625q0-1.6064453125,0.1708984375-3.22998046875q0.205078125-2.1533203125,0.2734375-4.23828125q0.068359375-2.44384765625,0.205078125-5.07568359375q0.08544921875-1.435546875,0.08544921875-2.8369140625q0-1.14501953125-0.05126953125-2.27294921875q0.1708984375-0.39306640625,0.452880859375-0.52978515625t0.709228515625-0.13671875q0.205078125,0,0.435791015625,0.0341796875t0.401611328125,0.1708984375q0.2392578125,0.0341796875,0.589599609375,0.068359375t0.538330078125,0.205078125q0.068359375,0.1025390625,0.350341796875,0.70068359375t0.66650390625,1.45263671875t0.80322265625,1.854248046875t0.80322265625,1.89697265625t0.66650390625,1.580810546875t0.350341796875,0.8544921875q1.6064453125-2.9052734375,3.14453125-5.972900390625t3.36669921875-5.784912109375q0.1708984375-0.2392578125,0.589599609375-0.350341796875t0.692138671875-0.111083984375q0.73486328125,0,1.068115234375,0.350341796875t0.435791015625,0.897216796875q0.068359375,0.341796875,0.08544921875,0.73486328125q0.01708984375,0.205078125-0.01708984375,0.42724609375q-0.068359375,0.63232421875-0.068359375,1.1962890625q0,3.98193359375-0.2734375,7.904052734375t-0.49560546875,7.921142578125q-0.0341796875,0.8203125-0.0341796875,1.708984375t0.0341796875,1.845703125q0.01708984375,0.341796875,0.01708984375,0.66650390625q0,1.50390625-0.25634765625,2.802734375q-0.2392578125,0.39306640625-0.7861328125,0.49560546875t-0.9228515625,0.1025390625q-0.80322265625,0-1.5380859375-0.3759765625l-0.18798828125-0.22216796875l-0.068359375-0.2734375t-0.0341796875-0.2734375q0-2.47802734375,0.179443359375-4.990234375t0.401611328125-5.015869140625t0.469970703125-4.998779296875t0.418701171875-4.990234375q-1.00830078125,1.6748046875-1.956787109375,3.409423828125t-1.785888671875,3.529052734375q-0.3076171875,0.70068359375-0.589599609375,1.50390625t-0.675048828125,1.435546875q-0.205078125,0.3076171875-0.692138671875,0.3759765625t-0.845947265625,0.068359375q-0.341796875,0-0.709228515625-0.11962890625t-0.504150390625-0.5126953125q-0.63232421875-1.93115234375-1.35009765625-3.77685546875t-1.45263671875-3.74267578125q0,1.2646484375,0.05126953125,3.272705078125t0.05126953125,4.161376953125t-0.068359375,4.11865234375t-0.32470703125,3.1103515625q-0.068359375,0.42724609375-0.555419921875,0.52978515625t-0.845947265625,0.1025390625q-0.2734375,0-0.521240234375-0.0341796875t-0.487060546875-0.13671875z M36.373754882812,36.12548828125q0-1.162109375,0.316162109375-2.23876953125t0.948486328125-1.922607421875t1.580810546875-1.35009765625t2.196044921875-0.504150390625q0.76904296875,0,1.700439453125,0.230712890625t1.751708984375,0.68359375t1.3671875,1.153564453125t0.546875,1.6064453125q0,0.42724609375-0.145263671875,0.6494140625t-0.589599609375,0.22216796875l-0.18798828125-0.0341796875q0.49560546875,1.3330078125,0.8544921875,2.734375t0.70068359375,2.802734375q0.13671875,0.2734375,0.205078125,0.487060546875t0.068359375,0.418701171875q0,0.2734375-0.15380859375,0.452880859375t-0.401611328125,0.264892578125t-0.5126953125,0.11962890625t-0.469970703125,0.0341796875q-0.73486328125,0-1.102294921875-0.25634765625t-0.52978515625-0.70068359375t-0.196533203125-0.999755859375t-0.13671875-1.119384765625q-0.205078125,0.66650390625-0.538330078125,1.298828125t-0.7861328125,1.136474609375t-1.068115234375,0.80322265625t-1.38427734375,0.299072265625q-1.1279296875,0-1.89697265625-0.6494140625t-1.239013671875-1.597900390625t-0.68359375-2.025146484375t-0.213623046875-1.99951171875z M38.800512695312,35.88623046875q0,0.63232421875,0.08544921875,1.3330078125t0.281982421875,1.38427734375t0.504150390625,1.290283203125t0.76904296875,1.068115234375q0.83740234375-0.90576171875,1.239013671875-2.20458984375t0.7177734375-2.503662109375t0.7177734375-2.06787109375t1.239013671875-0.863037109375q0.52978515625,0,0.888671875,0.18798828125q-0.1708984375-0.42724609375-0.56396484375-0.828857421875t-0.880126953125-0.73486328125t-1.00830078125-0.546875t-0.982666015625-0.213623046875q-0.13671875,0-0.316162109375,0.042724609375t-0.281982421875,0.008544921875q-0.70068359375,0.205078125-1.153564453125,0.709228515625t-0.73486328125,1.187744140625t-0.401611328125,1.4013671875t-0.11962890625,1.35009765625z M51.202099609375,36.2109375l0-0.49560546875q0-0.615234375,0.0341796875-1.162109375q0.0341796875-0.76904296875,0.0341796875-1.2646484375q0-0.2734375,0.0341796875-0.623779296875t0.1708984375-0.555419921875q0.1708984375-0.1708984375,0.401611328125-0.350341796875t0.504150390625-0.179443359375q0.87158203125,0,1.3671875,0.196533203125t0.52978515625,0.811767578125l0.068359375,0.52978515625q0.3076171875-0.73486328125,0.8203125-1.820068359375t1.187744140625-2.06787109375t1.52099609375-1.6748046875t1.785888671875-0.692138671875q0.87158203125,0,1.435546875,0.8203125t0.897216796875,2.093505859375t0.469970703125,2.8369140625t0.18798828125,3.067626953125t0.068359375,2.742919921875t0.11962890625,1.871337890625q0.068359375,0.52978515625,0.230712890625,1.119384765625t0.162353515625,1.085205078125q0,0.13671875-0.196533203125,0.264892578125t-0.418701171875,0.213623046875t-0.452880859375,0.13671875t-0.333251953125,0.05126953125q-0.66650390625,0-0.948486328125-0.999755859375t-0.350341796875-2.503662109375t-0.068359375-3.255615234375t-0.11962890625-3.255615234375t-0.487060546875-2.503662109375t-1.170654296875-1.033935546875q-0.73486328125,0-1.52099609375,0.948486328125t-1.35009765625,2.520751953125q-0.546875,1.572265625-0.751953125,3.57177734375q-0.068359375,0.63232421875-0.068359375,1.2646484375q0,1.38427734375,0.29052734375,2.7685546875q0.0341796875,0.2392578125-0.196533203125,0.35888671875t-0.572509765625,0.18798828125t-0.692138671875,0.08544921875t-0.538330078125,0.01708984375q-0.66650390625,0-1.068115234375-0.469970703125t-0.623779296875-1.204833984375t-0.299072265625-1.649169921875t-0.093994140625-1.802978515625z M66.731127929687,35.71533203125q0-1.572265625,0.367431640625-3.084716796875t0.623779296875-3.016357421875q0.068359375-0.39306640625,0.538330078125-0.487060546875t0.794677734375-0.093994140625q0.56396484375,0,0.90576171875,0.1708984375q0.13671875,0.068359375,0.25634765625,0.15380859375t0.11962890625,0.22216796875q0,1.4697265625-0.350341796875,2.87109375t-0.350341796875,2.9736328125q0,0.52978515625,0.076904296875,0.999755859375t0.145263671875,0.931396484375l0.1025390625,0.49560546875q0,0.13671875,0.01708984375,0.2392578125t0.05126953125,0.2392578125q0,0.3076171875-0.435791015625,0.418701171875t-0.760498046875,0.111083984375q-0.49560546875,0-0.914306640625-0.196533203125t-0.657958984375-0.675048828125l-0.2392578125-0.49560546875q-0.205078125-0.39306640625-0.205078125-0.880126953125t-0.08544921875-0.897216796875z M67.824877929687,25.42724609375l0-0.32470703125q0-0.80322265625,0.401611328125-1.435546875t1.204833984375-0.63232421875q0.1025390625,0,0.196533203125,0.01708984375t0.196533203125,0.01708984375q0.205078125,0.0341796875,0.538330078125,0.162353515625t0.333251953125,0.401611328125l0,0.0341796875q-0.068359375,0.13671875-0.08544921875,0.281982421875t-0.08544921875,0.247802734375l0.0341796875-0.0341796875q-0.205078125,0.52978515625-0.333251953125,0.8544921875t-0.281982421875,0.521240234375t-0.384521484375,0.281982421875t-0.657958984375,0.08544921875q-0.068359375,0-0.2392578125-0.01708984375t-0.367431640625-0.068359375t-0.333251953125-0.13671875t-0.13671875-0.25634765625z M74.19375,31.71630859375q0-0.70068359375,0.41015625-1.204833984375t0.999755859375-0.8203125t1.290283203125-0.469970703125t1.298828125-0.15380859375q0.46142578125,0,1.23046875,0.13671875t1.50390625,0.41015625t1.273193359375,0.7177734375t0.538330078125,1.04248046875q0,0.2734375-0.205078125,0.487060546875t-0.42724609375,0.213623046875q-0.46142578125,0-0.83740234375-0.299072265625t-0.777587890625-0.63232421875t-0.880126953125-0.63232421875t-1.07666015625-0.299072265625t-1.085205078125,0.384521484375t-0.487060546875,1.016845703125q0,1.04248046875,0.73486328125,2.042236328125t1.614990234375,2.10205078125t1.614990234375,2.315673828125t0.73486328125,2.68310546875q0,0.63232421875-0.264892578125,1.068115234375t-0.70068359375,0.709228515625t-0.982666015625,0.418701171875t-1.0595703125,0.145263671875q-0.56396484375,0-1.31591796875-0.264892578125t-1.41845703125-0.70068359375t-1.119384765625-1.016845703125t-0.452880859375-1.21337890625q0-0.3076171875,0.435791015625-0.39306640625t0.640869140625-0.08544921875q0.1025390625,0,0.316162109375,0.068359375t0.418701171875,0.15380859375t0.367431640625,0.18798828125t0.128173828125,0.22216796875q0.1708984375,0.205078125,0.521240234375,0.606689453125t0.70068359375,0.6494140625t0.615234375,0.179443359375t0.264892578125-0.76904296875q0-1.3330078125-0.7177734375-2.452392578125t-1.563720703125-2.1875t-1.563720703125-2.119140625t-0.7177734375-2.247314453125z M86.236450195312,37.98828125l0-1.6064453125q0-0.87158203125,0.042724609375-2.469482421875t0.111083984375-3.50341796875t0.18798828125-3.973388671875t0.2734375-3.905029296875t0.367431640625-3.289794921875t0.487060546875-2.1533203125q0.1708984375-0.39306640625,0.56396484375-0.49560546875t0.76904296875-0.1025390625q0.59814453125,0,1.051025390625,0.264892578125t0.452880859375,0.965576171875l-0.3076171875,0.341796875q-0.59814453125,3.94775390625-0.76904296875,7.9296875t-0.2392578125,7.9638671875q0.42724609375-0.66650390625,0.965576171875-1.307373046875t1.1962890625-1.136474609375t1.41845703125-0.794677734375t1.666259765625-0.299072265625q1.162109375,0,1.922607421875,0.70068359375t1.256103515625,1.820068359375t0.73486328125,2.503662109375t0.367431640625,2.7685546875t0.179443359375,2.623291015625t0.15380859375,2.059326171875q-0.32470703125,0.4443359375-0.95703125,0.4443359375l-0.05126953125,0q-0.2734375,0-0.59814453125-0.068359375t-0.42724609375-0.341796875l0.0341796875,0.0341796875q-0.2392578125-0.52978515625-0.32470703125-1.529541015625t-0.13671875-2.20458984375t-0.179443359375-2.469482421875t-0.384521484375-2.2900390625t-0.751953125-1.69189453125t-1.3330078125-0.70068359375l-0.1025390625,0q-1.00830078125,0-1.69189453125,0.615234375q-0.7177734375,0.6494140625-1.162109375,1.708984375t-0.68359375,2.3583984375t-0.367431640625,2.503662109375t-0.196533203125,2.1875t-0.1708984375,1.444091796875q-0.1025390625,0.39306640625-0.606689453125,0.521240234375t-0.863037109375,0.128173828125q-0.83740234375,0-1.3671875-0.478515625q-0.39306640625-0.93994140625-0.46142578125-2.34130859375t-0.068359375-2.734375z M109.24519042969,18.65966796875q0-0.2734375,0.196533203125-0.452880859375t0.46142578125-0.281982421875t0.5810546875-0.13671875t0.555419921875-0.0341796875q0.49560546875,0,1.051025390625,0.13671875t0.828857421875,0.59814453125q0.49560546875,0.83740234375,0.726318359375,1.990966796875t0.435791015625,2.213134765625q0.3076171875,1.4697265625,0.7861328125,3.076171875t0.999755859375,3.272705078125t1.068115234375,3.272705078125t0.95703125,3.0078125q0.49560546875-2.06787109375,0.914306640625-4.23828125t0.80322265625-4.3408203125t0.80322265625-4.3408203125t0.914306640625-4.25537109375q0.1025390625-0.49560546875,0.15380859375-1.24755859375t0.213623046875-1.45263671875t0.469970703125-1.204833984375t0.93994140625-0.504150390625q0.66650390625,0,0.897216796875,0.367431640625t0.230712890625,1.068115234375q-0.1708984375,1.93115234375-0.555419921875,3.828125t-0.709228515625,3.7939453125q-0.46142578125,2.34130859375-0.999755859375,4.691162109375t-1.00830078125,4.708251953125t-0.80322265625,4.725341796875t-0.401611328125,4.742431640625q0.0341796875,0.1025390625,0.1025390625,0.2392578125t0.068359375,0.205078125q0,0.205078125-0.18798828125,0.384521484375t-0.469970703125,0.3076171875t-0.615234375,0.196533203125t-0.623779296875,0.068359375q-0.2734375,0-0.623779296875-0.0341796875t-0.70068359375-0.128173828125t-0.615234375-0.247802734375t-0.333251953125-0.39306640625q-0.2734375-0.80322265625-0.504150390625-1.563720703125t-0.435791015625-1.563720703125q-0.97412109375-3.50341796875-2.042236328125-6.878662109375t-1.973876953125-6.861572265625q-0.42724609375-1.572265625-0.640869140625-3.084716796875t-0.692138671875-2.982177734375q0.068359375,0.13671875,0.068359375,0.22216796875q-0.068359375-0.2392578125-0.13671875-0.452880859375t-0.15380859375-0.469970703125q0,0.068359375,0.01708984375,0.08544921875t0.01708984375,0.05126953125q0-0.0341796875-0.01708984375-0.05126953125t-0.01708984375-0.05126953125z M127.73076171875,36.12548828125q0-1.162109375,0.316162109375-2.23876953125t0.948486328125-1.922607421875t1.580810546875-1.35009765625t2.196044921875-0.504150390625q0.76904296875,0,1.700439453125,0.230712890625t1.751708984375,0.68359375t1.3671875,1.153564453125t0.546875,1.6064453125q0,0.42724609375-0.145263671875,0.6494140625t-0.589599609375,0.22216796875l-0.18798828125-0.0341796875q0.49560546875,1.3330078125,0.8544921875,2.734375t0.70068359375,2.802734375q0.13671875,0.2734375,0.205078125,0.487060546875t0.068359375,0.418701171875q0,0.2734375-0.15380859375,0.452880859375t-0.401611328125,0.264892578125t-0.5126953125,0.11962890625t-0.469970703125,0.0341796875q-0.73486328125,0-1.102294921875-0.25634765625t-0.52978515625-0.70068359375t-0.196533203125-0.999755859375t-0.13671875-1.119384765625q-0.205078125,0.66650390625-0.538330078125,1.298828125t-0.7861328125,1.136474609375t-1.068115234375,0.80322265625t-1.38427734375,0.299072265625q-1.1279296875,0-1.89697265625-0.6494140625t-1.239013671875-1.597900390625t-0.68359375-2.025146484375t-0.213623046875-1.99951171875z M130.15751953125,35.88623046875q0,0.63232421875,0.08544921875,1.3330078125t0.281982421875,1.38427734375t0.504150390625,1.290283203125t0.76904296875,1.068115234375q0.83740234375-0.90576171875,1.239013671875-2.20458984375t0.7177734375-2.503662109375t0.7177734375-2.06787109375t1.239013671875-0.863037109375q0.52978515625,0,0.888671875,0.18798828125q-0.1708984375-0.42724609375-0.56396484375-0.828857421875t-0.880126953125-0.73486328125t-1.00830078125-0.546875t-0.982666015625-0.213623046875q-0.13671875,0-0.316162109375,0.042724609375t-0.281982421875,0.008544921875q-0.70068359375,0.205078125-1.153564453125,0.709228515625t-0.73486328125,1.187744140625t-0.401611328125,1.4013671875t-0.11962890625,1.35009765625z M142.54201660156,31.71630859375q0-0.70068359375,0.41015625-1.204833984375t0.999755859375-0.8203125t1.290283203125-0.469970703125t1.298828125-0.15380859375q0.46142578125,0,1.23046875,0.13671875t1.50390625,0.41015625t1.273193359375,0.7177734375t0.538330078125,1.04248046875q0,0.2734375-0.205078125,0.487060546875t-0.42724609375,0.213623046875q-0.46142578125,0-0.83740234375-0.299072265625t-0.777587890625-0.63232421875t-0.880126953125-0.63232421875t-1.07666015625-0.299072265625t-1.085205078125,0.384521484375t-0.487060546875,1.016845703125q0,1.04248046875,0.73486328125,2.042236328125t1.614990234375,2.10205078125t1.614990234375,2.315673828125t0.73486328125,2.68310546875q0,0.63232421875-0.264892578125,1.068115234375t-0.70068359375,0.709228515625t-0.982666015625,0.418701171875t-1.0595703125,0.145263671875q-0.56396484375,0-1.31591796875-0.264892578125t-1.41845703125-0.70068359375t-1.119384765625-1.016845703125t-0.452880859375-1.21337890625q0-0.3076171875,0.435791015625-0.39306640625t0.640869140625-0.08544921875q0.1025390625,0,0.316162109375,0.068359375t0.418701171875,0.15380859375t0.367431640625,0.18798828125t0.128173828125,0.22216796875q0.1708984375,0.205078125,0.521240234375,0.606689453125t0.70068359375,0.6494140625t0.615234375,0.179443359375t0.264892578125-0.76904296875q0-1.3330078125-0.7177734375-2.452392578125t-1.563720703125-2.1875t-1.563720703125-2.119140625t-0.7177734375-2.247314453125z M154.58471679688,37.98828125l0-1.6064453125q0-0.87158203125,0.042724609375-2.469482421875t0.111083984375-3.50341796875t0.18798828125-3.973388671875t0.2734375-3.905029296875t0.367431640625-3.289794921875t0.487060546875-2.1533203125q0.1708984375-0.39306640625,0.56396484375-0.49560546875t0.76904296875-0.1025390625q0.59814453125,0,1.051025390625,0.264892578125t0.452880859375,0.965576171875l-0.3076171875,0.341796875q-0.59814453125,3.94775390625-0.76904296875,7.9296875t-0.2392578125,7.9638671875q0.42724609375-0.66650390625,0.965576171875-1.307373046875t1.1962890625-1.136474609375t1.41845703125-0.794677734375t1.666259765625-0.299072265625q1.162109375,0,1.922607421875,0.70068359375t1.256103515625,1.820068359375t0.73486328125,2.503662109375t0.367431640625,2.7685546875t0.179443359375,2.623291015625t0.15380859375,2.059326171875q-0.32470703125,0.4443359375-0.95703125,0.4443359375l-0.05126953125,0q-0.2734375,0-0.59814453125-0.068359375t-0.42724609375-0.341796875l0.0341796875,0.0341796875q-0.2392578125-0.52978515625-0.32470703125-1.529541015625t-0.13671875-2.20458984375t-0.179443359375-2.469482421875t-0.384521484375-2.2900390625t-0.751953125-1.69189453125t-1.3330078125-0.70068359375l-0.1025390625,0q-1.00830078125,0-1.69189453125,0.615234375q-0.7177734375,0.6494140625-1.162109375,1.708984375t-0.68359375,2.3583984375t-0.367431640625,2.503662109375t-0.196533203125,2.1875t-0.1708984375,1.444091796875q-0.1025390625,0.39306640625-0.606689453125,0.521240234375t-0.863037109375,0.128173828125q-0.83740234375,0-1.3671875-0.478515625q-0.39306640625-0.93994140625-0.46142578125-2.34130859375t-0.068359375-2.734375z M170.93405761719,35.71533203125q0-1.572265625,0.367431640625-3.084716796875t0.623779296875-3.016357421875q0.068359375-0.39306640625,0.538330078125-0.487060546875t0.794677734375-0.093994140625q0.56396484375,0,0.90576171875,0.1708984375q0.13671875,0.068359375,0.25634765625,0.15380859375t0.11962890625,0.22216796875q0,1.4697265625-0.350341796875,2.87109375t-0.350341796875,2.9736328125q0,0.52978515625,0.076904296875,0.999755859375t0.145263671875,0.931396484375l0.1025390625,0.49560546875q0,0.13671875,0.01708984375,0.2392578125t0.05126953125,0.2392578125q0,0.3076171875-0.435791015625,0.418701171875t-0.760498046875,0.111083984375q-0.49560546875,0-0.914306640625-0.196533203125t-0.657958984375-0.675048828125l-0.2392578125-0.49560546875q-0.205078125-0.39306640625-0.205078125-0.880126953125t-0.08544921875-0.897216796875z M172.02780761719,25.42724609375l0-0.32470703125q0-0.80322265625,0.401611328125-1.435546875t1.204833984375-0.63232421875q0.1025390625,0,0.196533203125,0.01708984375t0.196533203125,0.01708984375q0.205078125,0.0341796875,0.538330078125,0.162353515625t0.333251953125,0.401611328125l0,0.0341796875q-0.068359375,0.13671875-0.08544921875,0.281982421875t-0.08544921875,0.247802734375l0.0341796875-0.0341796875q-0.205078125,0.52978515625-0.333251953125,0.8544921875t-0.281982421875,0.521240234375t-0.384521484375,0.281982421875t-0.657958984375,0.08544921875q-0.068359375,0-0.2392578125-0.01708984375t-0.367431640625-0.068359375t-0.333251953125-0.13671875t-0.13671875-0.25634765625z M178.3966796875,31.71630859375q0-0.70068359375,0.41015625-1.204833984375t0.999755859375-0.8203125t1.290283203125-0.469970703125t1.298828125-0.15380859375q0.46142578125,0,1.23046875,0.13671875t1.50390625,0.41015625t1.273193359375,0.7177734375t0.538330078125,1.04248046875q0,0.2734375-0.205078125,0.487060546875t-0.42724609375,0.213623046875q-0.46142578125,0-0.83740234375-0.299072265625t-0.777587890625-0.63232421875t-0.880126953125-0.63232421875t-1.07666015625-0.299072265625t-1.085205078125,0.384521484375t-0.487060546875,1.016845703125q0,1.04248046875,0.73486328125,2.042236328125t1.614990234375,2.10205078125t1.614990234375,2.315673828125t0.73486328125,2.68310546875q0,0.63232421875-0.264892578125,1.068115234375t-0.70068359375,0.709228515625t-0.982666015625,0.418701171875t-1.0595703125,0.145263671875q-0.56396484375,0-1.31591796875-0.264892578125t-1.41845703125-0.70068359375t-1.119384765625-1.016845703125t-0.452880859375-1.21337890625q0-0.3076171875,0.435791015625-0.39306640625t0.640869140625-0.08544921875q0.1025390625,0,0.316162109375,0.068359375t0.418701171875,0.15380859375t0.367431640625,0.18798828125t0.128173828125,0.22216796875q0.1708984375,0.205078125,0.521240234375,0.606689453125t0.70068359375,0.6494140625t0.615234375,0.179443359375t0.264892578125-0.76904296875q0-1.3330078125-0.7177734375-2.452392578125t-1.563720703125-2.1875t-1.563720703125-2.119140625t-0.7177734375-2.247314453125z M190.43937988281,37.98828125l0-1.6064453125q0-0.87158203125,0.042724609375-2.469482421875t0.111083984375-3.50341796875t0.18798828125-3.973388671875t0.2734375-3.905029296875t0.367431640625-3.289794921875t0.487060546875-2.1533203125q0.1708984375-0.39306640625,0.56396484375-0.49560546875t0.76904296875-0.1025390625q0.59814453125,0,1.051025390625,0.264892578125t0.452880859375,0.965576171875l-0.3076171875,0.341796875q-0.59814453125,3.94775390625-0.76904296875,7.9296875t-0.2392578125,7.9638671875q0.42724609375-0.66650390625,0.965576171875-1.307373046875t1.1962890625-1.136474609375t1.41845703125-0.794677734375t1.666259765625-0.299072265625q1.162109375,0,1.922607421875,0.70068359375t1.256103515625,1.820068359375t0.73486328125,2.503662109375t0.367431640625,2.7685546875t0.179443359375,2.623291015625t0.15380859375,2.059326171875q-0.32470703125,0.4443359375-0.95703125,0.4443359375l-0.05126953125,0q-0.2734375,0-0.59814453125-0.068359375t-0.42724609375-0.341796875l0.0341796875,0.0341796875q-0.2392578125-0.52978515625-0.32470703125-1.529541015625t-0.13671875-2.20458984375t-0.179443359375-2.469482421875t-0.384521484375-2.2900390625t-0.751953125-1.69189453125t-1.3330078125-0.70068359375l-0.1025390625,0q-1.00830078125,0-1.69189453125,0.615234375q-0.7177734375,0.6494140625-1.162109375,1.708984375t-0.68359375,2.3583984375t-0.367431640625,2.503662109375t-0.196533203125,2.1875t-0.1708984375,1.444091796875q-0.1025390625,0.39306640625-0.606689453125,0.521240234375t-0.863037109375,0.128173828125q-0.83740234375,0-1.3671875-0.478515625q-0.39306640625-0.93994140625-0.46142578125-2.34130859375t-0.068359375-2.734375z M206.08803710938,25.2734375q0-0.2392578125,0.5126953125-0.41015625t1.162109375-0.281982421875t1.256103515625-0.162353515625t0.828857421875-0.08544921875q0-0.46142578125,0.0341796875-0.931396484375t0.18798828125-0.83740234375t0.487060546875-0.589599609375t0.931396484375-0.22216796875q0.49560546875,0,0.751953125,0.11962890625t0.546875,0.49560546875q0.068359375,0.205078125,0.068359375,0.39306640625l0,0.572509765625t-0.0341796875,0.589599609375q0.63232421875-0.068359375,1.256103515625-0.162353515625t1.256103515625-0.093994140625q0.46142578125,0,0.63232421875,0.01708984375t0.341796875,0.41015625q0.13671875,0.39306640625-0.333251953125,0.59814453125t-1.1279296875,0.3076171875t-1.307373046875,0.15380859375t-0.7861328125,0.05126953125q-0.205078125,2.939453125-0.418701171875,5.82763671875t-0.213623046875,5.86181640625q0,1.3330078125,0.08544921875,2.75146484375t0.478515625,2.68310546875q0.1025390625,0.39306640625,0.341796875,0.73486328125t0.2392578125,0.73486328125q0,0.2392578125-0.18798828125,0.3759765625t-0.452880859375,0.230712890625t-0.52978515625,0.111083984375t-0.435791015625,0.01708984375q-1.07666015625,0-1.640625-0.80322265625t-0.811767578125-1.922607421875t-0.264892578125-2.298583984375t-0.01708984375-1.9140625q0-1.50390625,0.059814453125-3.076171875t0.145263671875-3.1103515625t0.2392578125-3.0078125t0.35888671875-2.734375q-0.59814453125,0.068359375-1.170654296875,0.15380859375t-1.170654296875,0.08544921875q-0.13671875,0-0.367431640625-0.01708984375t-0.435791015625-0.08544921875t-0.350341796875-0.18798828125t-0.145263671875-0.341796875z M219.15612792969,37.98828125l0-1.6064453125q0-0.87158203125,0.042724609375-2.469482421875t0.111083984375-3.50341796875t0.18798828125-3.973388671875t0.2734375-3.905029296875t0.367431640625-3.289794921875t0.487060546875-2.1533203125q0.1708984375-0.39306640625,0.56396484375-0.49560546875t0.76904296875-0.1025390625q0.59814453125,0,1.051025390625,0.264892578125t0.452880859375,0.965576171875l-0.3076171875,0.341796875q-0.59814453125,3.94775390625-0.76904296875,7.9296875t-0.2392578125,7.9638671875q0.42724609375-0.66650390625,0.965576171875-1.307373046875t1.1962890625-1.136474609375t1.41845703125-0.794677734375t1.666259765625-0.299072265625q1.162109375,0,1.922607421875,0.70068359375t1.256103515625,1.820068359375t0.73486328125,2.503662109375t0.367431640625,2.7685546875t0.179443359375,2.623291015625t0.15380859375,2.059326171875q-0.32470703125,0.4443359375-0.95703125,0.4443359375l-0.05126953125,0q-0.2734375,0-0.59814453125-0.068359375t-0.42724609375-0.341796875l0.0341796875,0.0341796875q-0.2392578125-0.52978515625-0.32470703125-1.529541015625t-0.13671875-2.20458984375t-0.179443359375-2.469482421875t-0.384521484375-2.2900390625t-0.751953125-1.69189453125t-1.3330078125-0.70068359375l-0.1025390625,0q-1.00830078125,0-1.69189453125,0.615234375q-0.7177734375,0.6494140625-1.162109375,1.708984375t-0.68359375,2.3583984375t-0.367431640625,2.503662109375t-0.196533203125,2.1875t-0.1708984375,1.444091796875q-0.1025390625,0.39306640625-0.606689453125,0.521240234375t-0.863037109375,0.128173828125q-0.83740234375,0-1.3671875-0.478515625q-0.39306640625-0.93994140625-0.46142578125-2.34130859375t-0.068359375-2.734375z M235.50546875,36.12548828125q0-1.162109375,0.316162109375-2.23876953125t0.948486328125-1.922607421875t1.580810546875-1.35009765625t2.196044921875-0.504150390625q0.76904296875,0,1.700439453125,0.230712890625t1.751708984375,0.68359375t1.3671875,1.153564453125t0.546875,1.6064453125q0,0.42724609375-0.145263671875,0.6494140625t-0.589599609375,0.22216796875l-0.18798828125-0.0341796875q0.49560546875,1.3330078125,0.8544921875,2.734375t0.70068359375,2.802734375q0.13671875,0.2734375,0.205078125,0.487060546875t0.068359375,0.418701171875q0,0.2734375-0.15380859375,0.452880859375t-0.401611328125,0.264892578125t-0.5126953125,0.11962890625t-0.469970703125,0.0341796875q-0.73486328125,0-1.102294921875-0.25634765625t-0.52978515625-0.70068359375t-0.196533203125-0.999755859375t-0.13671875-1.119384765625q-0.205078125,0.66650390625-0.538330078125,1.298828125t-0.7861328125,1.136474609375t-1.068115234375,0.80322265625t-1.38427734375,0.299072265625q-1.1279296875,0-1.89697265625-0.6494140625t-1.239013671875-1.597900390625t-0.68359375-2.025146484375t-0.213623046875-1.99951171875z M237.9322265625,35.88623046875q0,0.63232421875,0.08544921875,1.3330078125t0.281982421875,1.38427734375t0.504150390625,1.290283203125t0.76904296875,1.068115234375q0.83740234375-0.90576171875,1.239013671875-2.20458984375t0.7177734375-2.503662109375t0.7177734375-2.06787109375t1.239013671875-0.863037109375q0.52978515625,0,0.888671875,0.18798828125q-0.1708984375-0.42724609375-0.56396484375-0.828857421875t-0.880126953125-0.73486328125t-1.00830078125-0.546875t-0.982666015625-0.213623046875q-0.13671875,0-0.316162109375,0.042724609375t-0.281982421875,0.008544921875q-0.70068359375,0.205078125-1.153564453125,0.709228515625t-0.73486328125,1.187744140625t-0.401611328125,1.4013671875t-0.11962890625,1.35009765625z"/><path fill="#" d=""/></svg>
